<svg width="228" height="92" viewBox="0 0 228 92" fill="none" xmlns="http://www.w3.org/2000/svg">
<path fill-rule="evenodd" clip-rule="evenodd" d="M5.84287 48.0442L7.35317 47.0449C9.61861 45.546 11.1175 44.5506 12.1777 43.662C13.1846 42.8191 13.566 42.2546 13.7643 41.7283C13.9626 41.202 14.0542 40.5269 13.8597 39.2263C13.6537 37.8533 13.1922 36.118 12.4905 33.4901L11.8535 31.1064C8.41493 36.1341 6.34352 41.9699 5.84287 48.0404M16.331 25.7669C16.3664 25.8593 16.3969 25.9535 16.4226 26.0491L18.0587 32.1591C18.7071 34.5924 19.2601 36.6481 19.5156 38.3796C19.6491 39.2683 19.7178 40.134 19.6758 40.9998L29.2105 45.0159C29.4251 44.797 29.6545 44.5931 29.897 44.4057L36.9069 39.0509C37.2807 38.7648 37.6812 38.5207 38.0969 38.3262V27.9904C37.2913 27.7039 36.5148 27.3412 35.778 26.9073C34.2601 26.0339 32.5477 24.7714 30.5263 23.2764L25.2708 19.4014C21.9772 21.0458 18.9609 23.1948 16.331 25.7707M31.6133 16.9757L33.7948 18.5852C35.9802 20.1985 37.4294 21.2626 38.6308 21.9529C39.7674 22.6051 40.4233 22.7691 40.9878 22.7767C41.5484 22.7806 42.2082 22.6318 43.36 22.0025C44.5729 21.3389 46.045 20.3053 48.2647 18.7416L50.6369 17.0711C47.4888 16.1733 44.2309 15.7188 40.9573 15.7209C37.8004 15.7174 34.6574 16.1395 31.6133 16.9757ZM56.9603 19.5616C56.8481 19.6731 56.727 19.7751 56.598 19.8667L51.434 23.5052C49.3745 24.9545 47.6392 26.1826 46.106 27.0217C45.3547 27.4336 44.5957 27.7845 43.8177 28.04V38.3262C44.2296 38.5246 44.6301 38.7687 45.0038 39.0547L52.0099 44.4133C52.2616 44.604 52.4943 44.81 52.7117 45.0312L62.4752 40.9884C62.4371 40.1302 62.5057 39.2683 62.6392 38.3834C62.8947 36.6519 63.4478 34.5962 64.0961 32.1667L65.7323 26.0567C65.7416 26.0196 65.7518 25.9828 65.7628 25.9461C63.1756 23.3766 60.2063 21.2229 56.9603 19.5616ZM70.2327 31.3658L69.6644 33.4901C68.9626 36.118 68.5012 37.8571 68.2952 39.2263C68.1045 40.5231 68.1922 41.202 68.3905 41.7283C68.5889 42.2546 68.9703 42.8191 69.9771 43.662C71.0374 44.5506 72.5324 45.546 74.8017 47.0449L76.0526 47.8726C75.5376 41.9671 73.5354 36.2883 70.2327 31.3658ZM81.8841 52.5332C81.8993 52.026 81.9108 51.5149 81.9108 51C81.9108 28.3604 63.5774 10 40.9573 10C18.3333 10 0 28.3604 0 51C0 73.6396 18.3333 92 40.9573 92C62.4104 92 80.0038 75.4856 81.7658 54.4707C82.0289 53.858 82.0732 53.1726 81.8841 52.5332ZM75.9954 54.6957L71.5103 51.7246C69.4127 50.3402 67.6354 49.1693 66.2967 48.0404C65.6636 47.5196 65.079 46.9427 64.55 46.3165L54.5843 50.4432C54.5383 50.8622 54.4528 51.276 54.3288 51.6789L51.579 60.5921C51.4798 60.9048 51.3654 61.2023 51.2281 61.4922L56.8269 67.9683C57.685 67.6822 58.5812 67.5106 59.5118 67.4038C61.251 67.2055 63.3791 67.2055 65.8925 67.2055H72.254C74.2745 63.306 75.5425 59.0608 75.9916 54.6919M68.5507 72.9264H66.0488C63.3295 72.9264 61.5332 72.9302 60.1602 73.0866C58.8597 73.2392 58.2304 73.4947 57.7765 73.8265C57.3188 74.1545 56.8726 74.6656 56.3196 75.8593C55.7361 77.118 55.164 78.8228 54.3059 81.401L53.4439 83.9945C59.3821 81.7307 64.5997 77.9071 68.5469 72.9264M46.8078 85.7871L48.9245 79.4445C49.7178 77.0531 50.3928 75.0355 51.1289 73.4489C51.4607 72.7357 51.8269 72.0606 52.254 71.4352L46.7849 65.104C46.2661 65.2343 45.7332 65.2996 45.1983 65.2985H36.6934C36.1861 65.2985 35.6903 65.2413 35.2136 65.1345L30.3585 71.336C30.8162 71.9882 31.2052 72.6976 31.5523 73.4527C32.2921 75.0393 32.9634 77.0569 33.7605 79.4483L35.9153 85.9206C39.5361 86.4404 43.2156 86.3967 46.823 85.7909M29.3555 84.3225L28.3867 81.4048C27.5248 78.8266 26.9527 77.1179 26.3692 75.8632C25.8162 74.6732 25.37 74.1583 24.9161 73.8303C24.4584 73.4985 23.833 73.2392 22.5324 73.0904C21.1594 72.9379 19.3593 72.9302 16.6438 72.9302H13.3486C17.4969 78.1644 23.0447 82.1146 29.3478 84.3225M9.70633 67.3123C9.95727 67.2432 10.2165 67.2085 10.4767 67.2093H16.7925C19.3097 67.2093 21.434 67.2093 23.1732 67.4076C24.0694 67.5106 24.9275 67.6708 25.7513 67.9378L30.7246 61.599C30.5643 61.276 30.4304 60.9405 30.3242 60.5959L27.5744 51.6827C27.4481 51.275 27.3613 50.856 27.315 50.4317L17.5896 46.3317C17.0624 46.9546 16.4803 47.529 15.8505 48.048C14.508 49.1693 12.7346 50.3402 10.6369 51.7285L5.92296 54.8445C6.40732 59.3068 7.71548 63.5136 9.70252 67.3161M40.9458 43.4064C40.7385 43.4078 40.5374 43.4775 40.3738 43.6047L33.3715 48.9557C33.2157 49.074 33.1002 49.2375 33.0408 49.4238C32.9814 49.6102 32.981 49.8103 33.0397 49.9969L35.7933 58.9101C35.8521 59.1041 35.9717 59.2741 36.1345 59.3949C36.2972 59.5158 36.4945 59.5811 36.6972 59.5814H45.2021C45.4058 59.5832 45.6045 59.5187 45.7683 59.3976C45.932 59.2765 46.0519 59.1054 46.1098 58.9101L48.8635 49.9969C48.9216 49.8103 48.9209 49.6103 48.8615 49.4241C48.8022 49.2378 48.687 49.0743 48.5317 48.9557L41.5256 43.5971C41.361 43.4723 41.16 43.4053 40.9535 43.4064" fill="#B10000"/>
<path d="M113.438 27.7188H127.812V58H113.438V27.7188ZM102.625 16.5312H138.625V25.5625H102.625V16.5312ZM143.281 49.1562H147.438V25.3438H143.281V16.5312H165.406V25.3438H161.25V49.1562H165.406V58H143.281V49.1562ZM197.719 58V42.4688H179.781L171.469 34.1562V24.8125L179.781 16.5312H184.469V31.25H203.531L211.562 39.5625V49.7188L203.281 58H197.719ZM186.656 24V16.5312H203.25L210.438 23.75V28.1562H197.719V24H186.656ZM171.469 45.5625H185.281V50.5H195.531V58H178.438L171.469 49.7188V45.5625Z" fill="black"/>
<path d="M93.12 88V76.02H88.4V74.66H99.26V76.02H94.56V88H93.12ZM100.46 88V73.6H101.9V79.14L101.74 78.76C102.247 78.48 102.78 78.26 103.34 78.1C103.9 77.9267 104.427 77.84 104.92 77.84C105.747 77.84 106.44 77.9933 107 78.3C107.573 78.6067 108.007 79.0733 108.3 79.7C108.607 80.3133 108.76 81.1067 108.76 82.08V88H107.32V82.08C107.32 81.1467 107.107 80.4267 106.68 79.92C106.253 79.4133 105.613 79.16 104.76 79.16C104.293 79.16 103.82 79.2267 103.34 79.36C102.873 79.4933 102.393 79.6933 101.9 79.96V88H100.46ZM115.284 88.3C114.337 88.3 113.517 88.1067 112.824 87.72C112.131 87.32 111.597 86.7267 111.224 85.94C110.851 85.1533 110.664 84.1733 110.664 83C110.664 81.28 111.051 79.9933 111.824 79.14C112.611 78.2733 113.684 77.84 115.044 77.84C116.111 77.84 116.964 78.08 117.604 78.56C118.257 79.04 118.724 79.6867 119.004 80.5C119.284 81.3133 119.417 82.2333 119.404 83.26H111.384L111.484 81.94H118.464L117.904 82.14C117.864 81.14 117.611 80.3933 117.144 79.9C116.691 79.4067 115.991 79.16 115.044 79.16C114.391 79.16 113.844 79.28 113.404 79.52C112.977 79.76 112.657 80.18 112.444 80.78C112.231 81.3667 112.124 82.1933 112.124 83.26C112.124 84.4733 112.404 85.4 112.964 86.04C113.537 86.6667 114.337 86.98 115.364 86.98C115.857 86.98 116.311 86.9467 116.724 86.88C117.137 86.8 117.517 86.6933 117.864 86.56C118.211 86.4267 118.517 86.28 118.784 86.12V87.6C118.304 87.8267 117.771 88 117.184 88.12C116.611 88.24 115.977 88.3 115.284 88.3ZM126.402 88V74.66H127.842V88H126.402ZM130.346 78.82C130.666 78.66 130.993 78.52 131.326 78.4C131.673 78.2667 132.019 78.16 132.366 78.08C132.726 78 133.086 77.94 133.446 77.9C133.819 77.86 134.193 77.84 134.566 77.84C135.539 77.84 136.313 77.9867 136.886 78.28C137.459 78.56 137.873 78.9733 138.126 79.52C138.393 80.0667 138.526 80.7267 138.526 81.5V88H137.086V81.5C137.086 81.26 137.053 81.0067 136.986 80.74C136.933 80.4733 136.819 80.22 136.646 79.98C136.473 79.7267 136.206 79.5267 135.846 79.38C135.486 79.22 135.006 79.14 134.406 79.14C133.993 79.14 133.566 79.1733 133.126 79.24C132.686 79.3067 132.239 79.4067 131.786 79.54V88H130.346V78.82ZM145.073 88.3C144.593 88.3 144.086 88.2267 143.553 88.08C143.019 87.9467 142.513 87.6933 142.033 87.32C141.566 86.9333 141.179 86.3867 140.873 85.68C140.579 84.96 140.433 84.0267 140.433 82.88C140.433 81.3333 140.806 80.1133 141.553 79.22C142.313 78.3133 143.459 77.86 144.993 77.86C145.286 77.86 145.633 77.9 146.033 77.98C146.433 78.06 146.826 78.16 147.213 78.28C147.599 78.4 147.919 78.5267 148.173 78.66L147.673 79.16V73.8H149.113V86.28C149.113 86.6533 148.979 86.9733 148.713 87.24C148.459 87.4933 148.126 87.7 147.713 87.86C147.299 88.0067 146.859 88.1133 146.393 88.18C145.926 88.26 145.486 88.3 145.073 88.3ZM145.093 86.98C145.786 86.98 146.386 86.9 146.893 86.74C147.413 86.58 147.673 86.38 147.673 86.14V79.88C147.259 79.64 146.813 79.4667 146.333 79.36C145.866 79.24 145.419 79.18 144.993 79.18C144.273 79.18 143.686 79.34 143.233 79.66C142.793 79.9667 142.466 80.4 142.253 80.96C142.053 81.5067 141.953 82.1467 141.953 82.88C141.953 83.6 142.033 84.2733 142.193 84.9C142.353 85.5133 142.659 86.0133 143.113 86.4C143.566 86.7867 144.226 86.98 145.093 86.98ZM151.6 88V78.02H153.04V88H151.6ZM151.52 76.24V74.66H153.12V76.24H151.52ZM158.964 88.3C158.524 88.3 158.078 88.2533 157.624 88.16C157.184 88.0667 156.771 87.9067 156.384 87.68C156.011 87.4533 155.704 87.1467 155.464 86.76C155.238 86.36 155.124 85.86 155.124 85.26C155.124 84.4333 155.278 83.7733 155.584 83.28C155.904 82.7733 156.338 82.4133 156.884 82.2C157.444 81.9733 158.084 81.86 158.804 81.86C159.351 81.86 159.824 81.8933 160.224 81.96C160.624 82.0267 160.978 82.1267 161.284 82.26C161.604 82.38 161.891 82.52 162.144 82.68L162.424 84C162.118 83.7733 161.671 83.58 161.084 83.42C160.511 83.2467 159.878 83.16 159.184 83.16C158.344 83.16 157.698 83.32 157.244 83.64C156.791 83.96 156.564 84.4267 156.564 85.04C156.564 85.5333 156.698 85.9267 156.964 86.22C157.244 86.5133 157.591 86.72 158.004 86.84C158.431 86.96 158.864 87.02 159.304 87.02C160.171 87.02 160.824 86.96 161.264 86.84C161.718 86.7067 161.944 86.4133 161.944 85.96V81.38C161.944 80.6067 161.718 80.04 161.264 79.68C160.811 79.32 160.164 79.14 159.324 79.14C158.791 79.14 158.224 79.22 157.624 79.38C157.038 79.5267 156.531 79.7667 156.104 80.1V78.66C156.518 78.3933 157.071 78.1933 157.764 78.06C158.458 77.9133 159.131 77.84 159.784 77.84C160.224 77.84 160.631 77.8867 161.004 77.98C161.378 78.06 161.711 78.1867 162.004 78.36C162.298 78.52 162.544 78.7333 162.744 79C162.958 79.2533 163.118 79.5533 163.224 79.9C163.344 80.2333 163.404 80.6133 163.404 81.04V85.88C163.404 86.5867 163.191 87.1133 162.764 87.46C162.351 87.8067 161.804 88.0333 161.124 88.14C160.458 88.2467 159.738 88.3 158.964 88.3ZM165.798 78.82C166.118 78.66 166.445 78.52 166.778 78.4C167.125 78.2667 167.472 78.16 167.818 78.08C168.178 78 168.538 77.94 168.898 77.9C169.272 77.86 169.645 77.84 170.018 77.84C170.992 77.84 171.765 77.9867 172.338 78.28C172.912 78.56 173.325 78.9733 173.578 79.52C173.845 80.0667 173.978 80.7267 173.978 81.5V88H172.538V81.5C172.538 81.26 172.505 81.0067 172.438 80.74C172.385 80.4733 172.272 80.22 172.098 79.98C171.925 79.7267 171.658 79.5267 171.298 79.38C170.938 79.22 170.458 79.14 169.858 79.14C169.445 79.14 169.018 79.1733 168.578 79.24C168.138 79.3067 167.692 79.4067 167.238 79.54V88H165.798V78.82ZM185.266 88.2C184.599 88.2 184.033 88.1533 183.566 88.06C183.099 87.9667 182.679 87.8333 182.306 87.66C181.933 87.4867 181.526 87.2867 181.086 87.06V85.5C181.513 85.86 182.086 86.18 182.806 86.46C183.526 86.74 184.366 86.88 185.326 86.88C186.339 86.88 187.073 86.6667 187.526 86.24C187.993 85.8 188.226 85.2467 188.226 84.58C188.226 84.02 188.073 83.5733 187.766 83.24C187.459 82.8933 187.066 82.6133 186.586 82.4C186.106 82.1733 185.599 81.96 185.066 81.76C184.613 81.6 184.159 81.4333 183.706 81.26C183.266 81.0733 182.866 80.8467 182.506 80.58C182.146 80.3 181.859 79.9467 181.646 79.52C181.433 79.08 181.326 78.5333 181.326 77.88C181.326 77.52 181.393 77.14 181.526 76.74C181.673 76.34 181.899 75.9667 182.206 75.62C182.526 75.2733 182.946 74.9933 183.466 74.78C183.999 74.5667 184.646 74.46 185.406 74.46C185.926 74.46 186.366 74.5 186.726 74.58C187.099 74.6467 187.453 74.7533 187.786 74.9C188.119 75.0333 188.493 75.2 188.906 75.4V76.88C188.559 76.68 188.226 76.5 187.906 76.34C187.599 76.1667 187.253 76.0333 186.866 75.94C186.493 75.8333 186.033 75.78 185.486 75.78C184.833 75.78 184.306 75.8733 183.906 76.06C183.519 76.2467 183.233 76.4933 183.046 76.8C182.873 77.1067 182.786 77.4333 182.786 77.78C182.786 78.3267 182.906 78.76 183.146 79.08C183.399 79.4 183.746 79.6667 184.186 79.88C184.639 80.08 185.159 80.28 185.746 80.48C186.213 80.64 186.679 80.82 187.146 81.02C187.613 81.2067 188.033 81.4467 188.406 81.74C188.793 82.02 189.099 82.38 189.326 82.82C189.566 83.2467 189.686 83.78 189.686 84.42C189.686 85.02 189.553 85.6133 189.286 86.2C189.019 86.7733 188.566 87.2533 187.926 87.64C187.286 88.0133 186.399 88.2 185.266 88.2ZM195.86 88.16C195.326 88.16 194.78 88.0933 194.22 87.96C193.673 87.8133 193.166 87.56 192.7 87.2C192.246 86.8267 191.88 86.3 191.6 85.62C191.32 84.94 191.18 84.0667 191.18 83C191.18 81.9333 191.32 81.0667 191.6 80.4C191.88 79.72 192.246 79.1933 192.7 78.82C193.166 78.4467 193.673 78.1933 194.22 78.06C194.78 77.9133 195.326 77.84 195.86 77.84C196.366 77.84 196.866 77.8867 197.36 77.98C197.866 78.0733 198.353 78.2133 198.82 78.4V79.78C198.38 79.5933 197.926 79.4533 197.46 79.36C196.993 79.2667 196.513 79.22 196.02 79.22C194.833 79.22 193.966 79.52 193.42 80.12C192.886 80.72 192.62 81.68 192.62 83C192.62 84.3333 192.886 85.3 193.42 85.9C193.966 86.4867 194.833 86.78 196.02 86.78C196.513 86.78 196.993 86.7333 197.46 86.64C197.926 86.5467 198.38 86.4067 198.82 86.22V87.62C198.353 87.7933 197.866 87.9267 197.36 88.02C196.866 88.1133 196.366 88.16 195.86 88.16ZM204.823 88.3C203.263 88.3 202.103 87.84 201.343 86.92C200.597 85.9867 200.223 84.6933 200.223 83.04C200.223 81.3067 200.617 80.0067 201.403 79.14C202.203 78.2733 203.33 77.84 204.783 77.84C205.863 77.84 206.743 78.06 207.423 78.5C208.103 78.9267 208.603 79.5333 208.923 80.32C209.243 81.0933 209.403 82 209.403 83.04C209.403 84.68 209.003 85.9667 208.203 86.9C207.417 87.8333 206.29 88.3 204.823 88.3ZM204.803 86.98C205.617 86.98 206.25 86.8067 206.703 86.46C207.157 86.1 207.477 85.6267 207.663 85.04C207.863 84.44 207.963 83.7733 207.963 83.04C207.963 82.2533 207.863 81.5733 207.663 81C207.463 80.4133 207.13 79.96 206.663 79.64C206.21 79.32 205.59 79.16 204.803 79.16C204.003 79.16 203.377 79.3333 202.923 79.68C202.47 80.0267 202.143 80.4933 201.943 81.08C201.757 81.6533 201.663 82.3067 201.663 83.04C201.663 84.2133 201.897 85.1667 202.363 85.9C202.83 86.62 203.643 86.98 204.803 86.98ZM215.49 88.3C214.61 88.3 213.857 88.1467 213.23 87.84C212.603 87.5333 212.123 87.0867 211.79 86.5C211.47 85.9133 211.31 85.1933 211.31 84.34V78.02H212.75V84.02C212.75 85.0333 212.97 85.78 213.41 86.26C213.863 86.7267 214.557 86.96 215.49 86.96C216.423 86.96 217.11 86.7267 217.55 86.26C218.003 85.78 218.23 85.0333 218.23 84.02V78.02H219.67V84.34C219.67 85.6067 219.303 86.5867 218.57 87.28C217.85 87.96 216.823 88.3 215.49 88.3ZM225.213 88.16C224.506 88.16 223.913 87.9467 223.433 87.52C222.953 87.08 222.713 86.4333 222.713 85.58V79.34H220.973V78.02H222.713V75.2H224.153V78.02H226.733V79.34H224.153V85.12C224.153 85.68 224.239 86.1 224.413 86.38C224.586 86.66 224.939 86.8 225.473 86.8C225.713 86.8 225.946 86.78 226.173 86.74C226.399 86.6867 226.586 86.6267 226.733 86.56V87.92C226.546 87.9867 226.306 88.04 226.013 88.08C225.733 88.1333 225.466 88.16 225.213 88.16Z" fill="#5A5A5A"/>
</svg>
